<?xml version="1.0" encoding="UTF-8" standalone="no"?>
<svg width="256" height="256" fill="none" viewBox="-22 -22 260 300" version="1.1" id="svg1"
   sodipodi:docname="spring.svg" inkscape:version="1.3-beta (cedbd6c6ff, 2023-05-28)"
   xmlns:inkscape="http://www.inkscape.org/namespaces/inkscape"
   xmlns:sodipodi="http://sodipodi.sourceforge.net/DTD/sodipodi-0.dtd" xmlns="http://www.w3.org/2000/svg"
   xmlns:svg="http://www.w3.org/2000/svg">
   <defs id="defs1">
      <linearGradient id="swatch3" inkscape:swatch="solid">
         <stop style="stop-color:#000000;stop-opacity:1;" offset="0" id="stop3" />
      </linearGradient>
      <clipPath clipPathUnits="userSpaceOnUse" id="clipPath18">
         <g inkscape:label="Clip" id="use18">
            <path
               style="display:inline;fill:#ffffff;stroke:#fffffa;stroke-width:0.19796;stroke-dasharray:none;stroke-opacity:1"
               d="m 112.33256,185.70486 c 0,-0.21617 12.15945,-4.22931 21.57968,-7.12222 8.91354,-2.73731 11.36123,-3.5701 15.56373,-5.29535 11.0708,-4.54489 20.86056,-11.09119 30.36996,-20.30808 13.40399,-12.99166 22.62864,-28.0093 26.2076,-42.66569 1.14267,-4.6794 1.09147,-5.38923 -0.15843,-2.19646 -2.51409,6.42207 -7.09985,14.17989 -12.10997,20.4867 -3.08781,3.88696 -12.18728,12.9436 -16.27012,16.19351 -11.03987,8.78767 -22.09183,14.89684 -34.30017,18.96002 -8.86046,2.94894 -23.29027,6.65719 -38.6439,9.93091 l -4.08281,0.87054 -1.39418,-0.70738 c -6.886814,-3.49427 -11.523357,-10.69924 -13.241407,-20.57653 -0.699544,-4.02177 -0.43772,-11.10867 0.567908,-15.37183 3.226524,-13.67821 11.765268,-24.13279 24.875179,-30.45644 8.44809,-4.07498 15.07205,-5.37397 32.37181,-6.34823 18.48703,-1.04112 26.52259,-2.95148 38.80366,-9.225112 13.43521,-6.863201 24.13932,-16.583802 30.44539,-27.648009 l 1.28612,-2.256539 1.08106,3.306658 c 5.57793,17.06128 9.05917,32.446943 10.61398,46.909432 0.48916,4.55005 0.49746,18.21627 0.0135,22.1709 -1.40949,11.51663 -4.53644,20.66829 -9.747,28.52656 -9.03188,13.62136 -23.37993,20.537 -46.30404,22.31814 -4.98387,0.38723 -20.83662,0.37738 -33.9035,-0.0211 -9.84286,-0.30014 -16.7523,-0.14168 -22.07204,0.50619 -0.85358,0.10396 -1.55197,0.11267 -1.55197,0.0194 z"
               id="path18" transform="matrix(1.171875,0,0,1.171875,-42,-22)" />
            <path
               style="fill:#ffffff;stroke:#fffffa;stroke-width:0.0061629;stroke-linecap:square;stroke-linejoin:round;stroke-dasharray:none;stroke-opacity:1;paint-order:stroke fill markers"
               d="m 109.82828,186.407 c 0.0148,-0.0143 1.03053,-0.42421 1.59209,-0.64255 1.13545,-0.44149 1.90937,-0.7225 3.40179,-1.23518 0.31212,-0.10722 0.60259,-0.20716 0.6455,-0.2221 l 0.078,-0.0272 -0.002,0.0586 -0.002,0.0586 -0.299,0.10303 c -1.76335,0.60761 -2.73976,0.97036 -2.92846,1.08797 -0.051,0.0318 -0.0612,0.0445 -0.0661,0.0822 -0.002,0.0147 -0.007,0.029 -0.0113,0.0316 -0.006,0.004 -0.006,0.0107 -0.002,0.0281 0.003,0.0138 0.004,0.0453 8e-4,0.0773 -0.003,0.0297 -0.004,0.0553 -0.002,0.0568 0.002,0.002 0.0216,-0.007 0.0446,-0.018 0.039,-0.0194 0.0431,-0.0203 0.0614,-0.0127 0.0693,0.0289 0.29902,0.0423 0.56545,0.0328 0.34138,-0.0121 0.56879,-0.0314 1.08379,-0.0919 0.57452,-0.0675 0.92555,-0.10603 1.33021,-0.14598 0.10236,-0.0101 0.19503,-0.0196 0.20594,-0.0211 0.0198,-0.003 0.0198,-0.003 0.0198,0.0242 0,0.023 -0.002,0.0274 -0.0137,0.0299 -0.008,0.002 -0.10984,0.0128 -0.2273,0.0248 -1.68102,0.17235 -3.64442,0.42924 -5.22438,0.68357 -0.25281,0.0407 -0.25581,0.0411 -0.25155,0.037 z"
               id="path19" transform="matrix(1.171875,0,0,1.171875,-42,-22)" />
            <path
               style="fill:#ffffff;stroke:#fffffa;stroke-width:0.0061629;stroke-linecap:square;stroke-linejoin:round;stroke-dasharray:none;stroke-opacity:1;paint-order:stroke fill markers"
               d="m 109.88879,186.38409 c 0.042,-0.0188 0.42341,-0.17433 0.72308,-0.29485 1.24067,-0.49899 2.24207,-0.87347 3.56044,-1.33146 0.31344,-0.10888 1.36654,-0.47178 1.3691,-0.47179 6.4e-4,0 -0.001,0.092 -0.002,0.10454 -1.5e-4,0.002 -0.0325,0.0149 -0.072,0.0285 -1.67939,0.57636 -2.75258,0.96879 -3.07382,1.12399 -0.10244,0.0495 -0.13752,0.0777 -0.14936,0.12003 -0.009,0.0329 -0.0151,0.20337 -0.007,0.20337 0.003,0 0.023,-0.008 0.0447,-0.0179 0.0378,-0.0171 0.0407,-0.0175 0.0648,-0.009 0.028,0.01 0.16873,0.0294 0.18003,0.0253 0.008,-0.003 -0.005,-0.005 -0.0868,-0.0164 -0.0282,-0.004 -0.0677,-0.0121 -0.0878,-0.0184 l -0.0366,-0.0114 -0.0363,0.0183 c -0.02,0.0101 -0.0374,0.0173 -0.0387,0.016 -0.001,-0.001 -2.6e-4,-0.0242 0.002,-0.0509 0.003,-0.028 0.002,-0.0571 -10e-4,-0.0687 -0.004,-0.0151 -0.004,-0.0214 0.002,-0.0251 0.004,-0.003 0.009,-0.0188 0.0109,-0.0356 0.002,-0.0229 0.007,-0.0347 0.0191,-0.0462 0.0946,-0.0906 0.77102,-0.35135 2.29194,-0.8834 0.3806,-0.13314 0.96657,-0.33457 0.97328,-0.33457 0.004,0 0.006,0.2048 0.006,0.59493 0,0.32721 -6.9e-4,0.59511 -0.002,0.59533 -8.4e-4,2.2e-4 -0.0784,0.008 -0.17238,0.018 -0.48803,0.0504 -0.6043,0.0628 -0.60662,0.0648 -0.0106,0.009 0.009,0.008 0.30763,-0.0259 0.0168,-0.002 0.0346,-0.004 0.0397,-0.004 0.005,-1.3e-4 0.086,-0.008 0.18001,-0.0179 0.094,-0.01 0.18801,-0.0192 0.20899,-0.021 l 0.0381,-0.003 v 0.0214 c 0,0.0118 -0.002,0.0228 -0.005,0.0246 -0.006,0.003 -0.14515,0.0208 -0.2022,0.0252 -0.0185,10e-4 -0.0459,0.004 -0.061,0.007 -0.0151,0.002 -0.029,0.004 -0.031,0.004 -0.003,-5.7e-4 -0.27994,0.0286 -0.35951,0.0379 -0.0117,0.001 -0.0406,0.004 -0.0641,0.006 -0.12035,0.0107 -1.08903,0.1233 -1.39428,0.16209 -0.0789,0.01 -0.153,0.0194 -0.16475,0.0209 -0.0117,0.001 -0.031,0.004 -0.0427,0.006 -0.0118,0.002 -0.0365,0.005 -0.0549,0.007 -0.0505,0.005 -0.44502,0.0559 -0.57357,0.0735 -0.0621,0.008 -0.12525,0.0168 -0.14035,0.0185 -0.28238,0.0318 -1.54714,0.215 -2.23297,0.32348 -0.17937,0.0284 -0.33176,0.0514 -0.33865,0.0512 -0.008,-2.8e-4 -0.003,-0.005 0.0149,-0.0127 z m 3.04484,-0.51709 c 0.0252,-0.002 -0.0545,-0.004 -0.17695,-0.004 -0.1225,6e-5 -0.20762,0.002 -0.18916,0.004 0.0454,0.005 0.30923,0.005 0.36611,9e-5 z m 0.14035,-0.006 0.0336,-0.005 -0.0458,-1.4e-4 c -0.0252,-7e-5 -0.054,0.002 -0.0641,0.005 -0.0156,0.004 -0.0139,0.005 0.0122,0.005 0.0168,7e-5 0.0456,-0.002 0.0641,-0.005 z m 0.10983,-0.006 c 0.0264,-0.005 0.0258,-0.005 -0.0153,-0.006 -0.0235,-3.7e-4 -0.0468,0.002 -0.0519,0.005 -0.0114,0.007 0.0265,0.008 0.0671,3.1e-4 z m 0.0885,-0.006 c 0.0234,-0.005 0.0229,-0.005 -0.0134,-0.006 -0.0208,-3.8e-4 -0.0395,0.002 -0.0416,0.005 -0.005,0.007 0.0206,0.007 0.0549,3.5e-4 z m 0.0793,-0.006 c 0.0243,-0.005 0.0242,-0.005 -0.0103,-0.006 -0.0191,-3.9e-4 -0.0364,0.002 -0.0385,0.005 -0.004,0.007 0.0148,0.007 0.0488,3.5e-4 z m 0.0732,-0.006 c 0.0156,-0.004 0.0137,-0.005 -0.0137,-0.005 -0.0178,-4e-4 -0.032,0.002 -0.032,0.005 0,0.007 0.0187,0.007 0.0458,0 z m 0.0671,-0.006 c 0.0164,-0.004 0.0154,-0.005 -0.0103,-0.005 -0.0157,-4e-4 -0.0303,0.002 -0.0324,0.005 -0.004,0.007 0.0154,0.007 0.0427,0 z m 0.0641,-0.006 c 0.0124,-0.004 0.01,-0.005 -0.0137,-0.005 -0.016,-3.3e-4 -0.029,0.002 -0.029,0.005 0,0.007 0.0207,0.007 0.0427,0 z m 0.061,-0.006 c 0.013,-0.004 0.0115,-0.005 -0.0103,-0.005 -0.0141,-3.4e-4 -0.0273,0.002 -0.0293,0.005 -0.004,0.007 0.0175,0.007 0.0397,0 z m 0.0549,-0.006 c 0.0137,-0.004 0.013,-0.005 -0.007,-0.005 -0.0124,-3.4e-4 -0.0242,0.002 -0.0263,0.005 -0.004,0.007 0.0115,0.007 0.0336,0 z m 0.12772,-0.0127 c 0.025,-0.003 0.0469,-0.007 0.0488,-0.01 0.002,-0.002 -0.0116,-0.002 -0.0301,1.4e-4 -0.0185,0.002 -0.0536,0.006 -0.078,0.008 -0.0244,0.002 -0.046,0.006 -0.0478,0.009 -0.003,0.005 0.012,0.004 0.1071,-0.008 z m 0.21093,-0.024 c 0.0839,-0.0101 0.16628,-0.0197 0.18306,-0.0213 0.0168,-0.002 0.11289,-0.0127 0.21357,-0.0246 0.21023,-0.0249 0.20354,-0.0242 0.26981,-0.0299 0.0276,-0.002 0.0578,-0.007 0.0671,-0.009 l 0.017,-0.005 -0.0166,-5.2e-4 c -0.0171,-5.4e-4 -0.33601,0.0347 -0.60577,0.0669 -0.0839,0.01 -0.18,0.0213 -0.21356,0.025 -0.0336,0.004 -0.0636,0.009 -0.0668,0.0121 -0.007,0.007 -0.0245,0.008 0.15224,-0.0131 z"
               id="path20" transform="matrix(1.171875,0,0,1.171875,-42,-22)" />
         </g>
      </clipPath>
   </defs>
   <sodipodi:namedview id="namedview1" pagecolor="#ffffff" bordercolor="#000000" borderopacity="0.25"
      inkscape:showpageshadow="2" inkscape:pageopacity="0.0" inkscape:pagecheckerboard="0" inkscape:deskcolor="#d1d1d1"
      inkscape:zoom="4" inkscape:cx="124.75" inkscape:cy="128.625" inkscape:window-width="1920"
      inkscape:window-height="1051" inkscape:window-x="-9" inkscape:window-y="-9" inkscape:window-maximized="1"
      inkscape:current-layer="g21" />
   <g id="g21">
      <rect width="256" height="256" fill="#242938" rx="60" id="rect1" x="0" y="0" style="display:inline" />
      <ellipse
         style="display:inline;fill:#ffffff;stroke:#fffffa;stroke-width:0.00510683;stroke-linecap:square;stroke-linejoin:round;stroke-dasharray:none;stroke-opacity:1;paint-order:stroke fill markers"
         id="path21" cx="69.305702" cy="195.17712" rx="10.77233" ry="10.358009" />
      <ellipse
         style="display:inline;fill:#ffffff;stroke:#fffffa;stroke-width:0.0050656;stroke-linecap:square;stroke-linejoin:round;stroke-dasharray:none;stroke-opacity:1;paint-order:stroke fill markers"
         id="path22" cx="128.06834" cy="128" rx="98.584007" ry="85.546898" />
      <path
         style="fill:#ffffff;stroke:#fffffa;stroke-width:0.00510683;stroke-linecap:square;stroke-linejoin:round;stroke-dasharray:none;stroke-opacity:1;paint-order:stroke fill markers"
         d="m 208.48828,45.822266 -8.20312,14.355468 -6.88477,4.101563 8.49609,8.05664 17.13868,24.462891 4.54101,9.521482 -2.92969,-23.144529 z"
         id="path23" />
   </g>
   <path fill="#6eb340"
      d="m 209.545,171.821 c -24.615,32.797 -77.198,21.726 -110.9097,23.318 0,0 -5.968,0.332 -11.979,1.322 0,0 2.2729,-0.97 5.1716,-1.969 23.6781,-8.188 34.8671,-9.833 49.2541,-17.223 27.032,-13.848 53.936,-44.01 59.41,-75.344 -10.29,30.136 -41.583,56.073 -70.077,66.605 -19.504,7.197 -54.7731,14.201 -54.7782,14.204 0.0165,0.025 -1.4056,-0.738 -1.4255,-0.755 -23.986,-11.67 -24.6781,-63.62 18.8852,-80.366 19.1005,-7.3469 37.3689,-3.314033 58.0175,-8.226 22.0214,-5.238533 47.528,-21.743 57.895,-43.324 11.622,34.4721 25.583,88.404 0.536,121.758 z m 0.428,-132.4401 c -2.93,6.9621 -6.507,13.2358 -10.629,18.8472 C 181.197,39.6038 155.868,27.9999 127.871,27.9999 72.7989,27.9999 28,72.8039 28,127.866 c 0,28.865 12.3209,54.898 31.9644,73.146 l 2.187,1.937 c -3.6521,-2.978 -4.2137,-8.341 -1.2537,-11.997 2.9782,-3.657 8.3467,-4.224 12.0006,-1.262 3.6637,2.968 4.2219,8.345 1.2555,12.007 -2.9554,3.664 -8.3336,4.217 -11.9924,1.261 l 1.4883,1.318 c 17.3757,14.63 39.7743,23.467 64.2213,23.467 52.64,0 95.865,-40.965 99.565,-92.67 2.74,-25.316 -4.737,-57.4624 -17.463,-95.6921 z"
      id="path1" sodipodi:nodetypes="ccccccccccsccccsscccccccscc" style="display:inline" />
</svg>